# xmcd CD database file
#
# Track frame offsets:
#	150
#	20377
#	44061
#	69483
#	85688
#	100735
#
# Disc length: 1511 seconds
#
# Revision: 0
# Processed by: cddbd v1.5.1PL0 Copyright (c) Steve Scherf et al.
# Submitted via: CDex 1.51
#
DISCID=4405e506
DTITLE=Tom Gäbel - The day that lies ahead
DYEAR=2002
DGENRE=Jazz
TTITLE0=We are in love
TTITLE1=Lovely day
TTITLE2=The windmills of your mind
TTITLE3=Too close for comfort
TTITLE4=I concentrate on you
TTITLE5=I get along without you very well
EXTD=YEAR: 2002
EXTT0=
EXTT1=
EXTT2=
EXTT3=
EXTT4=
EXTT5=
PLAYORDER=
